<svg width="534" height="100" viewBox="0 0 534 100" fill="none" xmlns="http://www.w3.org/2000/svg">
<path d="M125.006 75V23.1509H144.56C159.819 23.1509 170.855 34.0392 170.855 49.0754C170.855 64.1117 159.819 75 144.56 75H125.006ZM136.19 64.6301H144.338C153.227 64.6301 159.374 58.112 159.374 49.0754C159.374 39.8908 153.227 33.5948 144.338 33.5948H136.19V64.6301Z" fill="#262429"/>
<path d="M197.24 76.1851C185.463 76.1851 176.5 67.0004 176.5 55.001C176.5 43.0017 185.389 33.8911 197.24 33.8911C209.535 33.8911 217.979 43.3721 217.979 54.927C217.979 55.964 217.905 57.0009 217.757 58.0379H187.462C188.425 63.5191 191.981 66.556 197.24 66.556C201.017 66.556 204.128 64.7783 205.758 61.8896H217.09C214.202 70.6298 206.573 76.1851 197.24 76.1851ZM187.759 50.705H207.165C205.61 45.8164 202.128 43.1498 197.24 43.1498C192.425 43.1498 189.018 45.9645 187.759 50.705Z" fill="#262429"/>
<path d="M244.269 76.1851C232.196 76.1851 223.011 66.9263 223.011 54.927C223.011 42.9276 232.196 33.8911 244.343 33.8911C254.713 33.8911 262.712 40.4833 264.638 50.3346H253.898C252.194 46.4089 248.565 44.0387 244.269 44.0387C238.417 44.0387 233.973 48.7792 233.973 55.001C233.973 61.1489 238.492 65.9634 244.269 65.9634C248.639 65.9634 252.12 63.5932 253.898 59.2971H264.786C262.935 69.3706 254.713 76.1851 244.269 76.1851Z" fill="#262429"/>
<path d="M295.525 75L282.785 55.8899V75H271.971V20.6326H282.785V52.7789L294.785 35.0021H307.228L293.674 54.1122L308.636 75H295.525Z" fill="#262429"/>
<path d="M340.23 52.5567C340.23 46.5571 338.082 43.5943 333.268 43.5943C327.86 43.5943 324.305 47.52 324.305 54.0381V75H313.491V20.6326H324.305V38.7797C327.342 35.891 331.564 34.1133 336.378 34.1133C345.415 34.1133 351.044 40.5574 351.044 50.705V75H340.23V52.5567Z" fill="#262429"/>
<path d="M379.904 76.1851C367.534 76.1851 358.275 67.0745 358.275 55.001C358.275 42.9276 367.534 33.8911 379.904 33.8911C392.274 33.8911 401.532 42.9276 401.532 55.001C401.532 67.0745 392.274 76.1851 379.904 76.1851ZM379.904 65.9634C386.126 65.9634 390.57 61.5192 390.57 55.001C390.57 48.557 386.126 44.0387 379.904 44.0387C373.682 44.0387 369.238 48.557 369.238 55.001C369.238 61.5192 373.682 65.9634 379.904 65.9634Z" fill="#262429"/>
<path d="M427.555 76.1851C416.296 76.1851 408.741 68.9262 408.741 58.112V35.0021H419.555V56.9269C419.555 62.6303 422.592 65.9634 427.555 65.9634C432.591 65.9634 435.554 62.5562 435.554 56.9269V35.0021H446.368V58.112C446.368 68.9262 438.887 76.1851 427.555 76.1851Z" fill="#262429"/>
<path d="M470.353 76.1851C460.354 76.1851 453.613 70.4076 453.613 61.8896H464.131C464.205 65.4449 466.946 67.2226 470.798 67.2226C473.76 67.2226 476.501 65.8153 476.501 63.1488C476.501 60.4082 473.02 59.5934 468.798 58.9268C462.428 57.8157 454.28 56.1121 454.28 46.7052C454.28 39.1501 460.724 33.8911 470.353 33.8911C479.982 33.8911 486.352 39.2982 486.426 47.2978H476.131C476.057 44.1128 473.834 42.5573 470.057 42.5573C466.724 42.5573 464.724 44.0387 464.724 46.3349C464.724 49.0014 468.131 49.668 472.279 50.4087C478.797 51.5938 487.167 52.9271 487.167 62.7043C487.167 70.852 480.501 76.1851 470.353 76.1851Z" fill="#262429"/>
<path d="M513.195 76.1851C501.417 76.1851 492.455 67.0004 492.455 55.001C492.455 43.0017 501.343 33.8911 513.195 33.8911C525.49 33.8911 533.934 43.3721 533.934 54.927C533.934 55.964 533.86 57.0009 533.712 58.0379H503.417C504.38 63.5191 507.936 66.556 513.195 66.556C516.972 66.556 520.083 64.7783 521.713 61.8896H533.045C530.157 70.6298 522.527 76.1851 513.195 76.1851ZM503.714 50.705H523.12C521.564 45.8164 518.083 43.1498 513.195 43.1498C508.38 43.1498 504.973 45.9645 503.714 50.705Z" fill="#262429"/>
<path d="M70.0527 79.9512L50.002 100.003L29.9502 79.9512L37.7285 72.1738L50.002 84.4473L62.2754 72.1729L70.0527 79.9512Z" fill="#004DF2"/>
<path d="M100.004 50.002L79.9531 70.0518L72.1748 62.2734L84.4473 50.002L72.1738 37.7285L79.9521 29.9502L100.004 50.002Z" fill="#004DF2"/>
<path d="M27.8301 37.7275L15.5566 50.002L27.8291 62.2744L20.0508 70.0518L0 50.002L20.0518 29.9492L27.8301 37.7275Z" fill="#004DF2"/>
<path d="M70.0527 20.0508L62.2744 27.8291L50.002 15.5566L37.7295 27.8281L29.9512 20.0498L50.002 0L70.0527 20.0508Z" fill="#004DF2"/>
<path d="M40.002 38.002H52.002C58.6294 38.002 64.002 43.3745 64.002 50.002C64.002 56.6294 58.6294 62.002 52.002 62.002H40.002V38.002Z" fill="#004DF2"/>
</svg>
